<svg width="256" height="256" viewBox="0 0 256 256" fill="none" xmlns="http://www.w3.org/2000/svg">
  <rect width="256" height="256" rx="72" fill="#FFF7EE"/>
  <circle cx="128" cy="110" r="54" fill="#FFD6BF"/>
  <path d="M70 100C70 66.8629 96.8629 40 130 40H136C167.48 40 193 65.5198 193 97V112H70V100Z" fill="#7A4D34"/>
  <path d="M84 226C84 189.549 113.549 160 150 160H106C142.451 160 172 189.549 172 226V226H84Z" fill="#9ED2B5"/>
  <circle cx="108" cy="112" r="6" fill="#1A2B24"/>
  <circle cx="146" cy="112" r="6" fill="#1A2B24"/>
  <path d="M110 136C115.5 142 121.5 145 128 145C134.5 145 140.5 142 146 136" stroke="#B85C38" stroke-width="6" stroke-linecap="round"/>
</svg>
